<?xml version="1.0" encoding="UTF-8"?>
<svg id="Calque_2" data-name="Calque 2" xmlns="http://www.w3.org/2000/svg" viewBox="0 0 41.98 27.95">
  <defs>
    <style>
      .cls-1 {
        fill: #fff;
      }
    </style>
  </defs>
  <g id="Capa_1" data-name="Capa 1">
    <path class="cls-1" d="m40.34,2.4c-1.52-1.7-4.31-2.4-9.66-2.4H11.29C5.83,0,2.98.74,1.47,2.55c-1.47,1.77-1.47,4.38-1.47,7.98v6.88c0,6.99,1.75,10.54,11.29,10.54h19.39c4.63,0,7.2-.61,8.86-2.12,1.7-1.54,2.43-4.06,2.43-8.42v-6.88c0-3.8-.11-6.43-1.64-8.14Zm-13.39,12.53l-8.81,4.35c-.2.1-.41.15-.63.15-.24,0-.49-.06-.7-.19-.41-.23-.65-.65-.65-1.1v-8.68c0-.45.25-.86.65-1.09.4-.23.91-.25,1.33-.04l8.81,4.33c.45.22.73.66.73,1.14,0,.48-.28.92-.73,1.14Z"/>
  </g>
</svg>