<?xml version="1.0" encoding="UTF-8"?>
<svg id="Calque_2" data-name="Calque 2" xmlns="http://www.w3.org/2000/svg" viewBox="0 0 23.83 27.34">
  <defs>
    <style>
      .cls-1 {
        fill: #fff;
      }
    </style>
  </defs>
  <g id="Capa_1" data-name="Capa 1">
    <path class="cls-1" d="m22.46,6.41c-2.8-.6-4.89-2.95-5.15-5.8v-.6h-4.71v18.69c0,2.19-1.79,3.95-3.97,3.94-1.23,0-2.39-.58-3.14-1.56h0s0,0,0,0c-1.32-1.74-.98-4.22.76-5.55,1.03-.78,2.37-1.01,3.59-.62v-4.78C5.1,9.47.74,12.77.08,17.51c-.37,2.65.51,5.32,2.38,7.23,3.34,3.42,8.82,3.48,12.24.14,1.67-1.63,2.6-3.86,2.6-6.19v-9.55c1.9,1.36,4.19,2.09,6.52,2.09v-4.68c-.46,0-.92-.05-1.37-.14Z"/>
  </g>
</svg>