<?xml version="1.0" encoding="UTF-8"?>
<svg id="Calque_2" data-name="Calque 2" xmlns="http://www.w3.org/2000/svg" viewBox="0 0 28.54 28.54">
  <defs>
    <style>
      .cls-1 {
        fill: #fff;
      }
    </style>
  </defs>
  <g id="Capa_1" data-name="Capa 1">
    <g>
      <path class="cls-1" d="m20.66,0H7.88C3.53,0,0,3.53,0,7.88v12.79c0,4.34,3.53,7.88,7.88,7.88h12.79c4.34,0,7.88-3.53,7.88-7.88V7.88c0-4.34-3.53-7.88-7.88-7.88Zm5.34,20.66c0,2.95-2.4,5.34-5.34,5.34H7.88c-2.95,0-5.34-2.4-5.34-5.34V7.88c0-2.95,2.4-5.34,5.34-5.34h12.79c2.95,0,5.34,2.4,5.34,5.34v12.79h0Z"/>
      <path class="cls-1" d="m14.27,6.92c-4.06,0-7.35,3.3-7.35,7.35s3.3,7.35,7.35,7.35,7.35-3.3,7.35-7.35-3.3-7.35-7.35-7.35Zm0,12.18c-2.66,0-4.82-2.16-4.82-4.82s2.16-4.82,4.82-4.82,4.82,2.16,4.82,4.82c0,2.66-2.16,4.82-4.82,4.82Z"/>
      <path class="cls-1" d="m21.93,4.77c-.49,0-.97.2-1.31.54-.35.34-.55.82-.55,1.31s.2.97.55,1.31c.34.34.82.54,1.31.54s.97-.2,1.31-.54c.35-.35.54-.83.54-1.31s-.2-.97-.54-1.31c-.34-.35-.82-.54-1.31-.54Z"/>
    </g>
  </g>
</svg>