<?xml version="1.0" encoding="UTF-8"?>
<svg id="Calque_2" data-name="Calque 2" xmlns="http://www.w3.org/2000/svg" viewBox="0 0 39.22 32.13">
  <defs>
    <style>
      .cls-1 {
        fill: #fff;
      }
    </style>
  </defs>
  <g id="Layer_1" data-name="Layer 1">
    <path class="cls-1" d="m38.33,3.71c-.62.27-1.25.5-1.9.69.77-.87,1.35-1.89,1.71-3,.08-.25,0-.52-.21-.69-.21-.16-.49-.18-.72-.05-1.37.82-2.86,1.4-4.41,1.74-1.57-1.53-3.69-2.4-5.89-2.4-4.64,0-8.42,3.78-8.42,8.42,0,.37.02.73.07,1.09-5.76-.51-11.12-3.34-14.8-7.85-.13-.16-.33-.25-.54-.23-.21.02-.39.13-.5.31-.75,1.28-1.14,2.75-1.14,4.24,0,2.03.72,3.96,2,5.46-.39-.13-.77-.3-1.13-.5-.19-.11-.43-.11-.62,0-.19.11-.31.31-.32.53,0,.04,0,.07,0,.11,0,3.03,1.63,5.76,4.12,7.24-.21-.02-.43-.05-.64-.09-.22-.04-.44.03-.59.2-.15.17-.2.4-.13.61.92,2.88,3.3,5,6.17,5.65-2.38,1.49-5.1,2.27-7.96,2.27-.6,0-1.2-.04-1.78-.1-.29-.03-.57.14-.67.42-.1.28,0,.59.25.75,3.67,2.36,7.92,3.6,12.28,3.6,8.57,0,13.94-4.04,16.92-7.44,3.73-4.23,5.87-9.83,5.87-15.36,0-.23,0-.46-.01-.7,1.47-1.11,2.74-2.45,3.77-3.99.16-.23.14-.54-.04-.76-.18-.22-.48-.29-.74-.17Z"/>
  </g>
</svg>